<svg id="Capa_1" enable-background="new 0 0 512 512" height="512" viewBox="0 0 512 512" width="512"
     xmlns="http://www.w3.org/2000/svg">
    <g>
        <g>
            <path d="m506.871 408.71c.921-15.803.819-30.172-.177-43.23l-110.088-9-110.094 9c-.997 13.058-1.098 27.427-.178 43.23z"
                  fill="#26457d"/>
            <path d="m284.005 413.65c0 11.009 14.128 27.486 26.236 27.486l2.949-9.156 8.929-6.973-9-29.696c-.946-.097-1.906-.147-2.879-.147-12.107-.001-22.404 7.715-26.235 18.486z"
                  fill="#e2ae84"/>
            <path d="m310.241 432.136c-12.108 0-22.405-7.715-26.236-18.486-1.034 2.905-1.601 6.031-1.601 9.29 0 15.34 12.463 27.777 27.837 27.777 1.945 0 3.843-.2 5.675-.579l7.147-8.919-9.873-9.239c-.969.102-1.952.156-2.949.156z"
                  fill="#d7a379"/>
            <path d="m509.206 413.65c0 11.009-14.128 27.486-26.236 27.486l-2.949-9.156-8.929-6.973 9-29.696c.946-.097 1.906-.147 2.878-.147 12.108-.001 22.405 7.715 26.236 18.486z"
                  fill="#e2ae84"/>
            <path d="m482.97 432.136c12.108 0 22.405-7.715 26.236-18.486 1.034 2.905 1.601 6.031 1.601 9.29 0 15.34-12.463 27.777-27.837 27.777-1.945 0-3.843-.2-5.675-.579l-7.147-8.919 9.873-9.239c.969.102 1.952.156 2.949.156z"
                  fill="#d7a379"/>
            <path d="m452.634 365.48-56.032-9-56.026 9c-15.901 26.125-27.453 29.83-27.456 29.831v14.806 9.581c0 46.007 37.378 83.303 83.485 83.303 46.107 0 83.485-37.296 83.485-83.303v-9.581-14.806c.001 0-11.553-3.704-27.456-29.831z"
                  fill="#f0c69e"/>
            <path d="m396.606 493.419c-46.108 0-83.486-37.296-83.486-83.303v18.581c0 46.007 37.378 83.303 83.485 83.303 46.107 0 83.485-37.296 83.485-83.303v-18.581c.001 46.008-37.377 83.303-83.484 83.303z"
                  fill="#e6ba94"/>
            <path d="m510.23 346.899c-10.895-75.78-63.447-98.519-113.628-98.519s-102.733 22.739-113.628 98.519l114.203 9z"
                  fill="#dc4955"/>
            <path d="m253.504 154.104c36.718-118.715-59.483-122.963-59.483-122.963s-11.439-31.141-62.918-31.141c-49.431 0-80.692 15.181-123.614 8.449-2.955-.464-5.704 1.624-5.981 4.603-1.927 20.74-6.472 94.532 21.341 135.171z"
                  fill="#26457d"/>
            <path d="m48.699 131.789c-11.442 0-21.305 6.727-25.847 16.432 2.212 3.233 4.627 6.258 7.267 9.028l21.529.685v-25.994c-.969-.1-1.953-.151-2.949-.151z"
                  fill="#21386b"/>
            <path d="m250.138 164.247c1.23-3.478 2.333-6.848 3.353-10.147-2.816-12.761-14.209-22.311-27.844-22.311-.996 0-1.979.052-2.949.151v31.434z"
                  fill="#21386b"/>
            <path d="m21.745 169.534c0 11.216 10.664 28.165 23.152 28.165l6.846-9.163 8.905-3.814-9-34.202c-.969-.099-1.953-.151-2.949-.151-12.488 0-23.094 8.014-26.954 19.165z"
                  fill="#e2ae84"/>
            <path d="m48.699 188.699c-12.488 0-23.094-8.013-26.954-19.165-1.008 2.912-1.563 6.036-1.563 9.29 0 15.715 12.768 28.455 28.517 28.455 1.993 0 3.937-.205 5.814-.594l3.173-8.987-5.943-9.163c-1 .107-2.015.164-3.044.164z"
                  fill="#d7a379"/>
            <path d="m252.602 169.534c0 11.216-10.664 28.165-23.152 28.165l-6.846-9.163-8.905-3.814 9-34.202c.969-.099 1.953-.151 2.949-.151 12.488 0 23.094 8.014 26.954 19.165z"
                  fill="#e2ae84"/>
            <path d="m225.648 188.699c12.488 0 23.094-8.013 26.954-19.165 1.008 2.912 1.563 6.036 1.563 9.29 0 15.715-12.768 28.455-28.517 28.455-1.993 0-3.937-.205-5.814-.594l-3.173-8.987 5.943-9.163c1 .107 2.015.164 3.044.164z"
                  fill="#d7a379"/>
            <path d="m219.998 126.533c1.659.905 2.7 2.638 2.7 4.529v35.08 9.581c0 47.131-38.291 85.338-85.525 85.338-47.234 0-85.525-38.207-85.525-85.338v-9.581-77.35c0-3.919 4.194-6.419 7.629-4.531 15.78 8.671 56.133 23.779 121.924 2.041 2.599-.859 5.41.458 6.421 3.001 3.35 8.424 12.47 26.37 32.376 37.23z"
                  fill="#f0c69e"/>
            <path d="m137.174 251.48c-47.234 0-85.525-38.207-85.525-85.338v18.581c0 47.131 38.291 85.338 85.525 85.338 47.234 0 85.525-38.207 85.525-85.338v-18.581c-.001 47.131-38.291 85.338-85.525 85.338z"
                  fill="#e6ba94"/>
            <path d="m282.976 346.899c-.602 4.186-1.081 8.529-1.424 13.041-.227 2.989 2.155 5.54 5.152 5.54h74.402l35.496-9 35.502 9h74.396c2.997 0 5.379-2.551 5.152-5.54-.343-4.512-.822-8.854-1.423-13.041z"
                  fill="#d82f3c"/>
            <path d="m331.826 158.922.013-.024-9.669 22.462c1.069.473 2.274 9.67 3.558 9.471 28.618-4.442 46.947-16.173 52.371-20.049 1.12-.8 2.502-1.098 3.86-.872 6.894 1.143 14.011 1.74 21.312 1.74 56.286 0 102.582-44.644 108.164-90.324-5.582-45.682-51.878-81.326-108.164-81.326-60.049 0-108.729 40.57-108.729 90.615.001 27.253 14.437 51.696 37.284 68.307z"
                  fill="#f6e080"/>
            <path d="m432.08 337.972c-.507-19.142-16.172-34.507-35.436-34.507h-.078c-19.265 0-34.93 15.365-35.436 34.507l35.472 9z"
                  fill="#26457d"/>
            <path d="m432.105 346.972-35.502 9-35.497-9v-8.999h70.999z" fill="#f6e080"/>
            <path d="m361.106 346.899h70.998v18.581h-70.998z" fill="#eccd61"/>
            <path d="m108.729 483.159c7.3 0 14.417-.597 21.311-1.74 1.358-.225 2.74.073 3.86.873 5.424 3.876 23.753 15.608 52.371 20.049 1.284.199 2.49-8.998 3.559-9.471l-9.669-22.462.013.024c22.847-16.611 37.283-41.054 37.283-68.308 0-50.045-48.68-90.615-108.729-90.615-56.286 0-102.582 35.643-108.164 81.324 5.583 45.682 51.879 90.326 108.165 90.326z"
                  fill="#f6e080"/>
            <g>
                <path d="m189.83 492.87c-1.069.473-2.275.67-3.559.471-28.618-4.442-46.947-16.173-52.371-20.049-1.12-.8-2.502-1.098-3.86-.873-6.894 1.143-14.011 1.74-21.312 1.74-56.286 0-102.582-35.644-108.164-81.324-.372 3.053-.564 6.153-.564 9.289 0 50.045 48.679 90.615 108.729 90.615 8.074 0 15.924-.73 23.496-2.122.521.422 20.004 16.02 54.047 21.304 5.417.841 9.523-5.195 7.222-10.54z"
                      fill="#eccd61"/>
            </g>
            <g>
                <path d="m403.271 162.649c-7.3 0-14.417-.597-21.312-1.74-1.358-.225-2.74.073-3.86.873-5.424 3.876-23.753 15.607-52.371 20.049-1.284.199-2.49.002-3.559-.471l-3.664 8.511c-2.301 5.345 1.805 11.381 7.222 10.54 34.043-5.283 53.526-20.882 54.047-21.303 7.572 1.391 15.422 2.122 23.496 2.122 60.05-.001 108.73-40.57 108.73-90.615 0-3.137-.192-6.236-.565-9.29-5.582 45.68-51.878 81.324-108.164 81.324z"
                      fill="#eccd61"/>
            </g>
        </g>
        <g>
            <path d="m95.46 150.531c-4.284 0-7.756 3.472-7.756 7.756v19.167c0 4.284 3.473 7.756 7.756 7.756s7.756-3.472 7.756-7.756v-19.167c0-4.284-3.472-7.756-7.756-7.756z"
                  fill="#5e6b75"/>
            <path d="m178.497 150.531c-4.283 0-7.756 3.472-7.756 7.756v19.167c0 4.284 3.473 7.756 7.756 7.756 4.284 0 7.756-3.472 7.756-7.756v-19.167c0-4.284-3.472-7.756-7.756-7.756z"
                  fill="#5e6b75"/>
            <path d="m356.362 395.584c-4.284 0-7.756 3.472-7.756 7.756v18.71c0 4.284 3.473 7.756 7.756 7.756 4.284 0 7.756-3.472 7.756-7.756v-18.71c0-4.284-3.473-7.756-7.756-7.756z"
                  fill="#5e6b75"/>
            <path d="m437.419 395.584c-4.283 0-7.756 3.472-7.756 7.756v18.71c0 4.284 3.473 7.756 7.756 7.756 4.284 0 7.756-3.472 7.756-7.756v-18.71c0-4.284-3.472-7.756-7.756-7.756z"
                  fill="#5e6b75"/>
            <g fill="#dc4955">
                <path d="m352.328 75.192h108.677c4.284 0 7.756-3.472 7.756-7.756s-3.473-7.756-7.756-7.756h-108.677c-4.284 0-7.756 3.472-7.756 7.756s3.472 7.756 7.756 7.756z"/>
                <path d="m352.328 122.038h62.573c4.284 0 7.756-3.472 7.756-7.756s-3.473-7.756-7.756-7.756h-62.573c-4.284 0-7.756 3.472-7.756 7.756s3.472 7.756 7.756 7.756z"/>
                <g>
                    <path d="m57.187 387.279h108.677c4.283 0 7.756-3.472 7.756-7.756s-3.473-7.756-7.756-7.756h-108.677c-4.284 0-7.756 3.472-7.756 7.756 0 4.283 3.473 7.756 7.756 7.756z"/>
                    <path d="m57.187 434.125h62.573c4.283 0 7.756-3.472 7.756-7.756s-3.473-7.756-7.756-7.756h-62.573c-4.284 0-7.756 3.472-7.756 7.756s3.473 7.756 7.756 7.756z"/>
                </g>
                <path d="m148.449 208.446c-.267.546-2.863 5.34-11.664 5.34s-11.397-4.794-11.664-5.34c-4.153-9.989-18.665-3.853-14.278 6.132 2.261 5.478 10.269 14.751 25.942 14.751s23.681-9.273 25.942-14.751c4.387-9.985-10.125-16.12-14.278-6.132z"/>
                <path d="m408.361 452.522c0-.001 0 0 0 0-.259.527-2.776 5.149-11.308 5.149-8.533 0-11.05-4.623-11.309-5.15 0 .001.001 0 0 .001-4.52-8.911-17.728-3.324-14.388 6.186.076.167.15.337.231.501 2.504 5.477 10.406 14.127 25.466 14.127s22.961-8.65 25.466-14.127c.081-.164.154-.334.231-.501 3.339-9.51-9.869-15.097-14.389-6.186z"/>
            </g>
        </g>
    </g>
</svg>
